<svg xmlns="http://www.w3.org/2000/svg" viewBox="0 0 1333.33 1333.33" shape-rendering="geometricPrecision" text-rendering="geometricPrecision" image-rendering="optimizeQuality" fill-rule="evenodd" clip-rule="evenodd"><path d="M666.67 0c368.19 0 666.67 298.48 666.67 666.67 0 368.19-298.48 666.67-666.67 666.67C298.48 1333.34 0 1034.86 0 666.67 0 298.48 298.48 0 666.67 0zM371.73 684.41c8.94-51.87 68.14-80.73 114.85-52.63 4.24 2.53 8.28 5.54 12.04 8.98l.37.35c20.96 20.09 44.44 41 67.72 61.72l19.98 17.93 236.99-248.58c14.15-14.81 24.5-24.41 45.74-29.17 72.72-16.04 123.83 72.83 72.3 127.15L646.33 880.1c-27.82 29.68-77.55 32.39-107.44 4.05-17.15-15.91-35.78-32.1-54.62-48.47-32.63-28.35-65.94-57.29-93.07-85.92-16.3-16.3-23.32-42.94-19.47-65.33z"/></svg>